HIERARCHY
ROOT joint_Root
{
	OFFSET 0.0 0.0 0.0
	CHANNELS 6 Xposition Yposition Zposition Zrotation Xrotation Yrotation 
	JOINT Hips
	{
		OFFSET 4.5925 91.4895 -427.239
		CHANNELS 6 Xposition Yposition Zposition Zrotation Xrotation Yrotation 
		JOINT Spine
		{
			OFFSET 15.7357 0.0 0.0
			CHANNELS 6 Xposition Yposition Zposition Zrotation Xrotation Yrotation 
			JOINT Chest
			{
				OFFSET 8.98455 -0.406207 0.0
				CHANNELS 6 Xposition Yposition Zposition Zrotation Xrotation Yrotation 
				JOINT Neck
				{
					OFFSET 16.3773 0.0 0.0
					CHANNELS 6 Xposition Yposition Zposition Zrotation Xrotation Yrotation 
					JOINT Head
					{
						OFFSET 6.45672 0.0 0.0
						CHANNELS 6 Xposition Yposition Zposition Zrotation Xrotation Yrotation 
						End Site
						{
							OFFSET 0.0 0.0 0.0
						}
					}
				}
				JOINT Shoulder_L
				{
					OFFSET 12.9942 -0.242716 4.98039
					CHANNELS 6 Xposition Yposition Zposition Zrotation Xrotation Yrotation 
					JOINT UpperArm_L
					{
						OFFSET 5.34809 0.0 0.0
						CHANNELS 6 Xposition Yposition Zposition Zrotation Xrotation Yrotation 
						JOINT LowerArm_L
						{
							OFFSET 24.3286 1.87007e-05 0.0
							CHANNELS 6 Xposition Yposition Zposition Zrotation Xrotation Yrotation 
							JOINT Hand_L
							{
								OFFSET 22.2916 0.0 0.0
								CHANNELS 6 Xposition Yposition Zposition Zrotation Xrotation Yrotation 
								End Site
								{
									OFFSET 0.0 0.0 0.0
								}
							}
						}
					}
				}
				JOINT Shoulder_R
				{
					OFFSET 12.9945 -0.242716 -4.98039
					CHANNELS 6 Xposition Yposition Zposition Zrotation Xrotation Yrotation 
					JOINT UpperArm_R
					{
						OFFSET -5.34813 0.0 0.0
						CHANNELS 6 Xposition Yposition Zposition Zrotation Xrotation Yrotation 
						JOINT LowerArm_R
						{
							OFFSET -24.3289 0.000322201 0.0
							CHANNELS 6 Xposition Yposition Zposition Zrotation Xrotation Yrotation 
							JOINT Hand_R
							{
								OFFSET -22.2915 -0.000108084 0.0
								CHANNELS 6 Xposition Yposition Zposition Zrotation Xrotation Yrotation 
								End Site
								{
									OFFSET 0.0 0.0 0.0
								}
							}
						}
					}
				}
			}
		}
		JOINT UpperLeg_L
		{
			OFFSET -2.19248 -6.46944 0.0
			CHANNELS 6 Xposition Yposition Zposition Zrotation Xrotation Yrotation 
			JOINT LowerLeg_L
			{
				OFFSET 39.0811 0.0 -1.23785e-05
				CHANNELS 6 Xposition Yposition Zposition Zrotation Xrotation Yrotation 
				JOINT Foot_L
				{
					OFFSET 40.9854 0.0 -1.26872e-05
					CHANNELS 6 Xposition Yposition Zposition Zrotation Xrotation Yrotation 
					JOINT Toes_L
					{
						OFFSET 11.7543 0.0 0.0
						CHANNELS 6 Xposition Yposition Zposition Zrotation Xrotation Yrotation 
						End Site
						{
							OFFSET 0.0 0.0 0.0
						}
					}
				}
			}
		}
		JOINT UpperLeg_R
		{
			OFFSET -2.19251 6.46944 0.0
			CHANNELS 6 Xposition Yposition Zposition Zrotation Xrotation Yrotation 
			JOINT LowerLeg_R
			{
				OFFSET -39.0811 -0.00228153 -0.0401928
				CHANNELS 6 Xposition Yposition Zposition Zrotation Xrotation Yrotation 
				JOINT Foot_R
				{
					OFFSET -40.9854 0.0 0.0
					CHANNELS 6 Xposition Yposition Zposition Zrotation Xrotation Yrotation 
					JOINT Toes_R
					{
						OFFSET -11.7543 0.0 0.0
						CHANNELS 6 Xposition Yposition Zposition Zrotation Xrotation Yrotation 
						End Site
						{
							OFFSET 0.0 0.0 0.0
						}
					}
				}
			}
		}
	}
}
MOTION
Frames:	6
Frame Time:	0.0333333
0.000000 0.000000 0.000000 0.000000 0.000000 -0.000000 65.016100 90.561800 197.107000 -82.711200 78.668800 175.748000 15.735700 0.000005 -0.000001 88.303500 83.114400 -86.484800 8.984550 -0.406207 -0.000000 6.008800 -0.434445 3.656090 16.377300 -0.000001 -0.000001 4.427640 5.995480 2.831660 6.456720 -0.000001 -0.000000 0.174640 11.132200 7.414340 12.994200 -0.242716 4.980390 -90.537600 1.667190 -72.123800 5.348090 -0.000007 -0.000001 -49.420500 56.269200 -39.946500 24.328600 0.000019 0.000005 13.804400 16.912300 -40.190500 22.291600 -0.000001 0.000005 9.994730 5.353350 -1.471070 12.994500 -0.242716 -4.980390 87.346600 12.654200 -78.055900 -5.348130 -0.000001 -0.000004 -58.244000 22.294000 -7.720500 -24.328900 0.000322 -0.000009 0.787275 3.081680 -14.358200 -22.291500 -0.000108 -0.000004 17.242200 5.333600 -0.885762 -2.192480 -6.469440 -0.000000 179.163000 -9.564570 -18.787400 39.081100 -0.000007 -0.000012 0.045964 -0.021935 64.483200 40.985400 -0.000006 -0.000013 11.154900 -11.570600 -57.153600 11.754300 -0.000000 0.000003 -0.006345 -0.073951 -19.586700 -2.192510 6.469440 -0.000001 174.994000 17.198000 176.299000 -39.081100 -0.002282 -0.040193 0.017994 -0.020782 35.279200 -40.985400 0.000008 0.000006 7.064890 14.978300 -71.022700 -11.754300 -0.000006 -0.000006 -0.006005 -0.070879 -19.457800
0.000000 0.000000 0.000000 0.000000 0.000000 -0.000000 67.410900 91.244600 196.593000 -81.445300 80.207300 173.710000 15.735700 0.000005 -0.000001 91.391600 83.160700 -89.753000 8.984550 -0.406207 -0.000000 5.906350 0.304781 3.257760 16.377300 -0.000001 -0.000001 4.225140 6.054680 2.999310 6.456720 -0.000001 -0.000000 -0.044796 10.796700 7.037640 12.994200 -0.242716 4.980390 -90.574400 1.803070 -72.327800 5.348090 -0.000007 -0.000001 -53.447600 55.716900 -34.741400 24.328600 0.000019 0.000005 12.023100 21.765300 -29.883900 22.291600 -0.000001 0.000005 6.439300 5.326040 -0.657402 12.994500 -0.242716 -4.980390 87.773600 11.647900 -79.100800 -5.348130 -0.000001 -0.000004 -57.638100 22.883000 -12.522900 -24.328900 0.000322 -0.000009 0.711870 2.090310 -18.868800 -22.291500 -0.000108 -0.000004 18.374500 5.366440 -1.875750 -2.192480 -6.469440 -0.000000 176.686000 -11.975500 -21.313400 39.081100 -0.000007 -0.000012 0.031363 -0.020372 56.989100 40.985400 -0.000006 -0.000013 9.431650 -8.359360 -59.994500 11.754300 -0.000000 0.000003 -0.006076 -0.071532 -19.488100 -2.192510 6.469440 -0.000001 174.379000 17.747100 178.043000 -39.081100 -0.002282 -0.040193 0.019424 -0.024954 32.875700 -40.985400 0.000008 0.000006 7.487640 17.174200 -68.802900 -11.754300 -0.000006 -0.000006 -0.014051 -0.131752 -21.947200
0.000000 0.000000 0.000000 0.000000 0.000000 -0.000000 69.843600 91.435900 196.063000 -76.986000 81.434600 168.563000 15.735700 0.000005 -0.000001 93.865300 83.183800 -92.297600 8.984550 -0.406207 -0.000000 5.825670 0.890133 3.086590 16.377300 -0.000001 -0.000001 3.813310 5.985080 3.053220 6.456720 -0.000001 -0.000000 -0.350379 10.471400 6.433460 12.994200 -0.242716 4.980390 -90.648200 2.038740 -72.357400 5.348090 -0.000007 -0.000001 -59.267900 52.113900 -27.501800 24.328600 0.000019 0.000005 10.284900 28.372000 -20.909900 22.291600 -0.000001 0.000005 4.529400 5.270580 0.881516 12.994500 -0.242716 -4.980390 88.135400 10.664100 -80.022500 -5.348130 -0.000001 -0.000004 -56.555500 23.625100 -17.466000 -24.328900 0.000322 -0.000009 -0.103425 -0.232311 -23.466100 -22.291500 -0.000108 -0.000004 18.414200 5.387840 -2.547400 -2.192480 -6.469440 -0.000000 174.638000 -14.160400 -22.981700 39.081100 -0.000007 -0.000012 0.019599 -0.018180 47.144800 40.985400 -0.000006 -0.000013 7.388410 -4.937850 -62.179100 11.754300 -0.000000 0.000003 -0.006459 -0.074959 -19.627900 -2.192510 6.469440 -0.000001 174.155000 17.922600 179.241000 -39.081100 -0.002282 -0.040193 0.019159 -0.025533 31.849200 -40.985400 0.000008 0.000006 7.593580 19.034800 -67.613400 -11.754300 -0.000006 -0.000006 -0.023054 -0.183651 -24.082600
0.000000 0.000000 0.000000 0.000000 0.000000 -0.000000 72.417500 91.165000 195.563000 -67.489000 82.578500 158.334000 15.735700 0.000005 -0.000001 97.033400 83.241200 -95.436800 8.984550 -0.406207 -0.000000 5.631050 1.621480 3.109800 16.377300 -0.000001 -0.000001 3.305130 5.769600 3.087420 6.456720 -0.000001 -0.000000 -0.773264 10.074800 5.836670 12.994200 -0.242716 4.980390 -90.674300 2.088350 -72.100000 5.348090 -0.000007 -0.000001 -65.025100 44.702100 -20.020900 24.328600 0.000019 0.000005 7.280140 32.847800 -13.253800 22.291600 -0.000001 0.000005 5.857930 5.178610 3.219770 12.994500 -0.242716 -4.980390 88.373000 9.839150 -80.562900 -5.348130 -0.000001 -0.000004 -54.650600 24.660100 -22.641400 -24.328900 0.000322 -0.000009 -1.288180 -2.429690 -27.905300 -22.291500 -0.000108 -0.000004 18.150400 5.406780 -3.159690 -2.192480 -6.469440 -0.000000 173.006000 -16.982700 -24.352500 39.081100 -0.000007 -0.000012 0.008946 -0.012234 36.170500 40.985400 -0.000006 -0.000013 4.968850 -1.635670 -62.462300 11.754300 -0.000000 0.000003 -0.006080 -0.071574 -19.489800 -2.192510 6.469440 -0.000001 174.463000 17.254100 -179.986000 -39.081100 -0.002282 -0.040193 0.018002 -0.023782 31.727100 -40.985400 0.000008 0.000006 7.733710 20.258600 -67.458900 -11.754300 -0.000006 -0.000006 -0.033201 -0.231774 -26.076500
0.000000 0.000000 0.000000 0.000000 0.000000 -0.000000 75.236400 90.494400 195.043000 -54.431700 83.173800 144.733000 15.735700 0.000005 -0.000001 99.745400 83.273300 -98.052900 8.984550 -0.406207 -0.000000 5.465620 2.238030 3.274550 16.377300 -0.000001 -0.000001 2.786620 5.565820 3.077550 6.456720 -0.000001 -0.000000 -1.182550 9.512930 5.430750 12.994200 -0.242716 4.980390 -90.630200 1.897030 -71.618500 5.348090 -0.000007 -0.000001 -68.359800 35.604000 -14.267100 24.328600 0.000019 0.000005 3.903140 31.980000 -7.338260 22.291600 -0.000001 0.000005 9.931850 5.073910 5.681740 12.994500 -0.242716 -4.980390 88.554000 9.144060 -80.974300 -5.348130 -0.000001 -0.000004 -52.161300 25.425300 -27.700300 -24.328900 0.000322 -0.000009 -1.915250 -3.059110 -32.057700 -22.291500 -0.000108 -0.000004 18.324700 5.424160 -3.738970 -2.192480 -6.469440 -0.000000 171.301000 -19.015300 -25.649500 39.081100 -0.000007 -0.000012 0.031481 -0.064789 25.915200 40.985400 -0.000006 -0.000013 5.026320 -1.037160 -62.412000 11.754300 -0.000000 0.000003 -0.005763 -0.068675 -19.371600 -2.192510 6.469440 -0.000001 174.850000 16.381800 -179.245000 -39.081100 -0.002282 -0.040193 0.015816 -0.019591 32.580200 -40.985400 0.000008 0.000006 7.910420 21.178400 -68.164500 -11.754300 -0.000006 -0.000006 -0.045134 -0.279959 -28.089000
0.000000 0.000000 0.000000 0.000000 0.000000 -0.000000 78.488800 89.505700 194.443000 -41.298800 83.112300 131.603000 15.735700 0.000005 -0.000001 101.642000 83.170000 -99.868000 8.984550 -0.406207 -0.000000 5.578130 2.716190 3.412920 16.377300 -0.000001 -0.000001 2.408780 5.313120 3.237410 6.456720 -0.000001 -0.000000 -1.605890 8.888580 5.325230 12.994200 -0.242716 4.980390 -90.548200 1.628700 -71.393700 5.348090 -0.000007 -0.000001 -69.579400 25.749700 -9.645150 24.328600 0.000019 0.000005 2.204230 28.584500 -4.598700 22.291600 -0.000001 0.000005 13.332900 5.006660 7.172830 12.994500 -0.242716 -4.980390 88.665200 8.790640 -81.331100 -5.348130 -0.000001 -0.000004 -49.317800 25.603400 -32.368000 -24.328900 0.000322 -0.000009 -1.718420 -2.402890 -35.576500 -22.291500 -0.000108 -0.000004 18.816400 5.435380 -4.124130 -2.192480 -6.469440 -0.000000 168.163000 -21.534200 -27.787400 39.081100 -0.000007 -0.000012 0.103092 -0.284333 19.929500 40.985400 -0.000006 -0.000013 13.980800 -4.310200 -62.052600 11.754300 -0.000000 0.000003 -0.006095 -0.071705 -19.495200 -2.192510 6.469440 -0.000001 175.116000 15.332400 -178.117000 -39.081100 -0.002282 -0.040193 0.015227 -0.017380 34.477000 -40.985400 0.000008 0.000006 8.110240 21.577700 -69.087700 -11.754300 -0.000006 -0.000006 -0.062407 -0.339521 -30.603400
